<svg xmlns="http://www.w3.org/2000/svg" xmlns:xlink="http://www.w3.org/1999/xlink" width="245" zoomAndPan="magnify" viewBox="0 0 183.75 576" height="768" preserveAspectRatio="xMidYMid meet" version="1.0"><defs><clipPath id="e37adbce7e"><path d="M 2 0.390625 L 181 0.390625 L 181 575.609375 L 2 575.609375 Z M 2 0.390625 " clip-rule="nonzero"/></clipPath><clipPath id="d94db9fb31"><path d="M 2.425781 575.273438 L 3.476562 0.0585938 L 180.984375 0.382812 L 179.933594 575.601562 Z M 2.425781 575.273438 " clip-rule="nonzero"/></clipPath><clipPath id="eac2ceab46"><path d="M 2.425781 575.273438 L 3.476562 0.0585938 L 180.984375 0.382812 L 179.933594 575.601562 Z M 2.425781 575.273438 " clip-rule="nonzero"/></clipPath></defs><g clip-path="url(#e37adbce7e)"><g clip-path="url(#d94db9fb31)"><g clip-path="url(#eac2ceab46)"><path fill="#ffffff" d="M 180.019531 457.078125 C 180.019531 457.1875 180.019531 457.300781 180.019531 457.414062 C 179.902344 459.324219 178.441406 460.667969 176.53125 460.777344 L 25.980469 465.558594 L 113.355469 480.882812 C 115.378906 481.222656 116.722656 482.914062 116.832031 484.933594 C 116.828125 486.957031 115.589844 488.640625 113.566406 489.085938 L 95.695312 493.097656 C 93.785156 493.542969 92.546875 495.113281 92.542969 497.023438 C 92.535156 501.742188 89.15625 505.78125 84.546875 506.558594 L 75.894531 508.003906 C 75.78125 508.003906 75.671875 508.003906 75.667969 508.226562 C 75.667969 508.453125 75.78125 508.453125 75.894531 508.453125 L 102.175781 512.882812 C 104.984375 513.335938 106.886719 515.699219 106.769531 518.507812 C 106.765625 521.316406 104.738281 523.558594 101.929688 523.890625 L 65.523438 528.429688 C 64.621094 528.542969 64.398438 529.214844 64.394531 529.550781 C 64.394531 529.890625 64.394531 530.5625 65.179688 530.902344 L 86.957031 539.816406 C 90.328125 541.171875 92.457031 544.433594 92.449219 548.140625 L 92.398438 575.441406 L 87.457031 575.429688 L 87.503906 548.132812 C 87.507812 546.558594 86.5 545.097656 85.039062 544.417969 L 63.261719 535.503906 C 60.566406 534.375 59.113281 531.789062 59.453125 528.867188 C 59.796875 526.0625 62.046875 523.816406 64.855469 523.484375 L 101.265625 518.945312 C 101.378906 518.945312 101.714844 518.835938 101.828125 518.386719 C 101.828125 517.9375 101.492188 517.824219 101.378906 517.824219 L 75.097656 513.394531 C 72.515625 512.941406 70.722656 510.800781 70.726562 508.21875 C 70.730469 505.632812 72.53125 503.503906 75.003906 503.058594 L 83.660156 501.5 C 85.90625 501.054688 87.59375 499.148438 87.597656 496.789062 C 87.601562 494.765625 88.28125 492.746094 89.632812 491.175781 C 90.871094 489.605469 92.671875 488.484375 94.691406 488.039062 L 108.515625 485.144531 L 5.304688 466.980469 C 3.84375 466.753906 2.835938 465.402344 2.953125 463.941406 C 3.066406 462.480469 4.304688 461.359375 5.765625 461.25 L 164.40625 456.261719 L 94.886719 442.878906 C 90.734375 442.082031 87.707031 438.371094 87.714844 434.214844 C 87.71875 430.730469 85.367188 427.691406 81.886719 426.902344 L 61.671875 422.257812 C 59.539062 421.804688 58.082031 419.890625 58.085938 417.644531 C 58.089844 415.398438 59.664062 413.601562 61.800781 413.15625 L 100.011719 405.476562 C 100.125 405.476562 100.238281 405.476562 100.238281 405.25 C 100.238281 405.027344 100.125 405.027344 100.125 405.027344 L 75.199219 396.441406 C 72.84375 395.652344 71.386719 393.515625 71.390625 391.042969 C 71.394531 388.570312 72.859375 386.550781 75.21875 385.65625 L 86.125 381.859375 C 87.136719 381.523438 87.925781 380.511719 87.925781 379.390625 L 88.621094 0.226562 L 93.5625 0.234375 L 92.871094 379.511719 C 92.863281 382.769531 90.835938 385.574219 87.800781 386.691406 L 76.898438 390.492188 C 76.445312 390.601562 76.445312 390.941406 76.445312 391.164062 C 76.445312 391.390625 76.558594 391.726562 76.894531 391.839844 L 101.820312 400.421875 C 104.0625 401.214844 105.519531 403.351562 105.292969 405.710938 C 105.175781 408.070312 103.488281 409.976562 101.125 410.421875 L 64.488281 417.769531 L 83.128906 422.070312 C 85.824219 422.75 88.292969 424.214844 90.085938 426.464844 C 91.878906 428.714844 92.773438 431.414062 92.769531 434.222656 C 92.765625 436.132812 94.109375 437.707031 95.90625 438.046875 L 177.105469 453.476562 C 178.789062 453.816406 180.023438 455.277344 180.019531 457.078125 Z M 180.019531 457.078125 " fill-opacity="1" fill-rule="nonzero"/></g></g></g></svg>