<svg xmlns="http://www.w3.org/2000/svg" xmlns:xlink="http://www.w3.org/1999/xlink" width="1366" zoomAndPan="magnify" viewBox="0 0 1024.5 576" height="768" preserveAspectRatio="xMidYMid meet" version="1.0"><defs><filter x="0%" y="0%" width="100%" height="100%" id="ad2133de2f"><feColorMatrix values="0 0 0 0 1 0 0 0 0 1 0 0 0 0 1 0 0 0 1 0" color-interpolation-filters="sRGB"/></filter><mask id="2ff6c1b717"><g filter="url(#ad2133de2f)"><rect x="-102.45" width="1229.4" fill="#000000" y="-57.6" height="691.2" fill-opacity="0.26"/></g></mask><clipPath id="a266acd337"><path d="M 0 0.976562 L 382.804688 0.976562 L 382.804688 431.175781 L 0 431.175781 Z M 0 0.976562 " clip-rule="nonzero"/></clipPath><clipPath id="9445877e6d"><path d="M 382.621094 216.074219 L 257.472656 431.175781 L 7.175781 431.175781 L -117.972656 216.074219 L 7.175781 0.976562 L 257.472656 0.976562 Z M 382.621094 216.074219 " clip-rule="nonzero"/></clipPath><clipPath id="0fb26342a7"><rect x="0" width="383" y="0" height="432"/></clipPath><clipPath id="f705ba3233"><path d="M 0 0.140625 L 403 0.140625 L 403 575.859375 L 0 575.859375 Z M 0 0.140625 " clip-rule="nonzero"/></clipPath><clipPath id="3261e29053"><path d="M 0 60 L 349 60 L 349 575.859375 L 0 575.859375 Z M 0 60 " clip-rule="nonzero"/></clipPath><clipPath id="5accd91a2f"><path d="M 0 0.140625 L 122 0.140625 L 122 61 L 0 61 Z M 0 0.140625 " clip-rule="nonzero"/></clipPath><clipPath id="2e3589cd0c"><path d="M 0 224.894531 L 122.507812 224.894531 L 122.507812 575.859375 L 0 575.859375 Z M 0 224.894531 " clip-rule="nonzero"/></clipPath><clipPath id="1f92fe4390"><path d="M 122.289062 480.828125 L -26.617188 736.761719 L -324.429688 736.761719 L -473.335938 480.828125 L -324.429688 224.894531 L -26.617188 224.894531 Z M 122.289062 480.828125 " clip-rule="nonzero"/></clipPath></defs><g mask="url(#2ff6c1b717)"><g transform="matrix(1, 0, 0, 1, 0, 71)"><g clip-path="url(#0fb26342a7)"><g clip-path="url(#a266acd337)"><g clip-path="url(#9445877e6d)"><path fill="#d9d9d9" d="M -117.972656 0.976562 L 382.804688 0.976562 L 382.804688 431.175781 L -117.972656 431.175781 Z M -117.972656 0.976562 " fill-opacity="1" fill-rule="nonzero"/></g></g></g></g></g><g clip-path="url(#f705ba3233)"><path fill="#b20d0d" d="M -15.886719 231.15625 L -15.886719 623.03125 L 68.960938 623.03125 L 209.160156 342.742188 L 402.394531 -47.035156 L 121.109375 -47.035156 L 68.242188 60.242188 Z M -15.886719 231.15625 " fill-opacity="1" fill-rule="nonzero"/></g><g clip-path="url(#3261e29053)"><path fill="#960000" d="M -15.886719 60.242188 L -15.886719 453.390625 L 68.960938 623.03125 L 348.3125 623.03125 L 209.160156 342.742188 L 68.960938 60.242188 Z M -15.886719 60.242188 " fill-opacity="1" fill-rule="nonzero"/></g><g clip-path="url(#5accd91a2f)"><path fill="#9e2828" d="M 121.109375 -47.035156 L 68.960938 60.242188 L -15.886719 60.242188 L -15.886719 -47.035156 Z M 121.109375 -47.035156 " fill-opacity="1" fill-rule="nonzero"/></g><g clip-path="url(#2e3589cd0c)"><g clip-path="url(#1f92fe4390)"><path fill="#b20d0d" d="M -473.335938 224.894531 L 122.507812 224.894531 L 122.507812 736.761719 L -473.335938 736.761719 Z M -473.335938 224.894531 " fill-opacity="1" fill-rule="nonzero"/></g></g></svg>