<svg xmlns="http://www.w3.org/2000/svg" xmlns:xlink="http://www.w3.org/1999/xlink" width="1366" zoomAndPan="magnify" viewBox="0 0 1024.5 576" height="768" preserveAspectRatio="xMidYMid meet" version="1.0"><defs><clipPath id="fcb8faf241"><path d="M 882 0.140625 L 1024 0.140625 L 1024 173 L 882 173 Z M 882 0.140625 " clip-rule="nonzero"/></clipPath><clipPath id="13e0c3e52f"><path d="M 932 245 L 1024 245 L 1024 405 L 932 405 Z M 932 245 " clip-rule="nonzero"/></clipPath><clipPath id="b296e340ff"><path d="M 908 454 L 1024 454 L 1024 575.859375 L 908 575.859375 Z M 908 454 " clip-rule="nonzero"/></clipPath><clipPath id="d89d930ee4"><path d="M 687.917969 511 L 988 511 L 988 575.859375 L 687.917969 575.859375 Z M 687.917969 511 " clip-rule="nonzero"/></clipPath><clipPath id="ef3310729a"><path d="M 1012 324 L 1024 324 L 1024 565 L 1012 565 Z M 1012 324 " clip-rule="nonzero"/></clipPath><clipPath id="a1ea6fb3db"><path d="M 701 0.140625 L 978 0.140625 L 978 39 L 701 39 Z M 701 0.140625 " clip-rule="nonzero"/></clipPath><clipPath id="4a54c63364"><path d="M 1011 0.140625 L 1024 0.140625 L 1024 105 L 1011 105 Z M 1011 0.140625 " clip-rule="nonzero"/></clipPath><clipPath id="c19904be9c"><path d="M 1004 312 L 1024 312 L 1024 569 L 1004 569 Z M 1004 312 " clip-rule="nonzero"/></clipPath><clipPath id="0040e01f9b"><path d="M 716 0.140625 L 984 0.140625 L 984 161 L 716 161 Z M 716 0.140625 " clip-rule="nonzero"/></clipPath><clipPath id="c96914a5af"><path d="M 837 460 L 992 460 L 992 575.859375 L 837 575.859375 Z M 837 460 " clip-rule="nonzero"/></clipPath><clipPath id="ea55ccb4fa"><path d="M 914 125 L 1024 125 L 1024 279 L 914 279 Z M 914 125 " clip-rule="nonzero"/></clipPath></defs><g clip-path="url(#fcb8faf241)"><path fill="#9e2828" d="M 882.683594 51.882812 L 1003.027344 -68.464844 L 1123.375 51.882812 L 1003.027344 172.230469 Z M 882.683594 51.882812 " fill-opacity="1" fill-rule="nonzero"/></g><g clip-path="url(#13e0c3e52f)"><path fill="#9e2828" d="M 932.71875 324.980469 L 1011.894531 245.804688 L 1091.070312 324.980469 L 1011.894531 404.15625 Z M 932.71875 324.980469 " fill-opacity="1" fill-rule="nonzero"/></g><g clip-path="url(#b296e340ff)"><path fill="#9e2828" d="M 908.195312 533.585938 L 987.371094 454.410156 L 1066.542969 533.585938 L 987.371094 612.761719 Z M 908.195312 533.585938 " fill-opacity="1" fill-rule="nonzero"/></g><g clip-path="url(#d89d930ee4)"><path fill="#9e2828" d="M 987.765625 661.179688 L 960.46875 688.476562 L 715.222656 688.476562 L 687.925781 661.179688 L 837.84375 511.261719 L 920.03125 593.445312 Z M 987.765625 661.179688 " fill-opacity="1" fill-rule="nonzero"/></g><path fill="#9e2828" d="M 816.324219 424.296875 L 895.5 345.125 L 974.675781 424.296875 L 895.5 503.472656 Z M 816.324219 424.296875 " fill-opacity="1" fill-rule="nonzero"/><g clip-path="url(#ef3310729a)"><path fill="#9e2828" d="M 1132.242188 324.664062 L 1132.242188 564.441406 L 1012.351562 444.550781 Z M 1132.242188 324.664062 " fill-opacity="1" fill-rule="nonzero"/></g><g clip-path="url(#a1ea6fb3db)"><path fill="#9e2828" d="M 977.789062 -99.144531 L 917.480469 -38.832031 L 904.296875 -25.652344 L 839.847656 38.800781 L 785.535156 -15.511719 L 772.355469 -28.6875 L 701.902344 -99.144531 Z M 977.789062 -99.144531 " fill-opacity="1" fill-rule="nonzero"/></g><g clip-path="url(#4a54c63364)"><path fill="#161d24" d="M 1038.253906 -15.503906 L 1047.121094 -24.371094 L 1071.800781 -49.066406 L 1121.898438 -99.144531 L 1095.535156 -99.144531 L 1058.636719 -62.246094 L 1033.945312 -37.566406 L 1011.890625 -15.511719 L 1101.324219 73.921875 L 1132.242188 104.847656 L 1132.242188 78.480469 Z M 1038.253906 -15.503906 " fill-opacity="1" fill-rule="nonzero"/></g><g clip-path="url(#c19904be9c)"><path fill="#161d24" d="M 1004.40625 440.550781 L 1132.242188 568.386719 L 1132.242188 542.023438 L 1030.765625 440.550781 L 1132.242188 339.078125 L 1132.242188 312.714844 Z M 1004.40625 440.550781 " fill-opacity="1" fill-rule="nonzero"/></g><g clip-path="url(#0040e01f9b)"><path fill="#161d24" d="M 945.4375 -10.875 L 917.484375 -38.832031 L 857.164062 -99.144531 L 842.808594 -99.144531 L 806.816406 -63.148438 L 716.460938 27.207031 L 849.988281 160.734375 L 983.507812 27.214844 Z M 907.582031 76.777344 L 849.988281 134.371094 L 742.820312 27.207031 L 785.535156 -15.511719 L 810.367188 -40.335938 L 820.003906 -49.972656 L 849.988281 -79.960938 L 904.300781 -25.648438 L 932.257812 2.3125 L 957.15625 27.207031 Z M 907.582031 76.777344 " fill-opacity="1" fill-rule="nonzero"/></g><g clip-path="url(#c96914a5af)"><path fill="#161d24" d="M 947.75 494.027344 L 926.347656 472.625 L 914.332031 460.605469 L 850.765625 524.175781 L 837.476562 537.460938 L 914.332031 614.320312 L 951.632812 577.019531 L 991.1875 537.460938 Z M 944.042969 569.433594 L 914.332031 599.148438 L 852.636719 537.453125 L 891.058594 499.027344 L 914.324219 475.765625 L 976.007812 537.464844 Z M 944.042969 569.433594 " fill-opacity="1" fill-rule="nonzero"/></g><path fill="#9e2828" d="M 890.019531 204.621094 L 954.503906 140.136719 L 1018.988281 204.621094 L 954.503906 269.105469 Z M 890.019531 204.621094 " fill-opacity="1" fill-rule="nonzero"/><g clip-path="url(#ea55ccb4fa)"><path fill="#161d24" d="M 1053.558594 187.667969 L 1020.574219 154.679688 L 991.171875 125.292969 L 973.625 142.839844 L 965.421875 151.054688 L 914.332031 202.148438 L 991.179688 278.996094 L 1018.140625 252.039062 L 1052.621094 217.558594 L 1068.039062 202.136719 Z M 1045.039062 209.984375 L 991.183594 263.835938 L 929.5 202.152344 L 991.179688 140.472656 L 1012.984375 162.277344 L 1045.96875 195.257812 L 1052.863281 202.15625 Z M 1045.039062 209.984375 " fill-opacity="1" fill-rule="nonzero"/></g></svg>