<svg xmlns="http://www.w3.org/2000/svg" xmlns:xlink="http://www.w3.org/1999/xlink" width="1366" zoomAndPan="magnify" viewBox="0 0 1024.5 576" height="768" preserveAspectRatio="xMidYMid meet" version="1.0"><defs><clipPath id="24a42f8cbd"><path d="M 324 225 L 490 225 L 490 429 L 324 429 Z M 324 225 " clip-rule="nonzero"/></clipPath><clipPath id="7d5286ace3"><path d="M 532.453125 492.371094 C 487.074219 511.207031 433.925781 488.792969 392.527344 439.835938 C 371.953125 415.574219 354.308594 384.734375 341.945312 349.15625 C 335.546875 330.824219 331.027344 312.347656 328.132812 294.308594 C 314.320312 206.773438 341.003906 127.375 397.300781 104.054688 C 465.199219 75.925781 550.457031 140.027344 587.769531 247.230469 C 625.15625 354.507812 600.351562 464.242188 532.453125 492.371094 Z M 532.453125 492.371094 " clip-rule="nonzero"/></clipPath><clipPath id="06403af8a3"><path d="M 395 225 L 490 225 L 490 363 L 395 363 Z M 395 225 " clip-rule="nonzero"/></clipPath><clipPath id="e68a04430b"><path d="M 532.453125 492.371094 C 487.074219 511.207031 433.925781 488.792969 392.527344 439.835938 C 371.953125 415.574219 354.308594 384.734375 341.945312 349.15625 C 335.546875 330.824219 331.027344 312.347656 328.132812 294.308594 C 314.320312 206.773438 341.003906 127.375 397.300781 104.054688 C 465.199219 75.925781 550.457031 140.027344 587.769531 247.230469 C 625.15625 354.507812 600.351562 464.242188 532.453125 492.371094 Z M 532.453125 492.371094 " clip-rule="nonzero"/></clipPath><clipPath id="9de72fda7a"><path d="M 628 0.140625 L 821 0.140625 L 821 126 L 628 126 Z M 628 0.140625 " clip-rule="nonzero"/></clipPath></defs><path fill="#9e2828" d="M 210.988281 560.34375 L 200.828125 565.007812 C 192.871094 568.660156 183.472656 565.1875 179.820312 557.234375 L 121.609375 430.472656 C 117.957031 422.515625 121.429688 413.117188 129.382812 409.464844 L 150.425781 399.8125 C 158.851562 395.941406 168.792969 400.101562 171.9375 408.851562 L 219.230469 540.601562 C 222.085938 548.339844 218.472656 556.910156 210.988281 560.34375 Z M 210.988281 560.34375 " fill-opacity="1" fill-rule="nonzero"/><path fill="#ffde59" d="M 200.863281 565.007812 C 192.910156 568.660156 183.507812 565.1875 179.855469 557.234375 L 121.644531 430.472656 C 117.992188 422.515625 121.464844 413.117188 129.417969 409.464844 L 132.023438 408.269531 C 140.085938 404.582031 149.628906 408.199219 153.136719 416.335938 L 208.710938 544.289062 C 212.214844 552.210938 208.671875 561.394531 200.863281 565.007812 Z M 200.863281 565.007812 " fill-opacity="1" fill-rule="nonzero"/><path fill="#ffde59" d="M 134.480469 393.296875 C 134.988281 394.535156 135.445312 395.796875 135.851562 397.074219 C 136.253906 398.351562 136.601562 399.640625 136.894531 400.945312 C 137.1875 402.246094 137.425781 403.554688 137.605469 404.867188 C 137.785156 406.183594 137.90625 407.496094 137.972656 408.808594 C 138.039062 410.121094 138.046875 411.429688 137.996094 412.726562 C 137.945312 414.027344 137.839844 415.3125 137.675781 416.585938 C 137.507812 417.859375 137.289062 419.113281 137.011719 420.351562 C 136.730469 421.585938 136.398438 422.796875 136.011719 423.980469 C 135.621094 425.167969 135.179688 426.320312 134.683594 427.445312 C 134.1875 428.566406 133.640625 429.65625 133.042969 430.707031 C 132.445312 431.757812 131.800781 432.765625 131.105469 433.734375 C 130.414062 434.703125 129.671875 435.628906 128.890625 436.503906 C 128.105469 437.378906 127.28125 438.207031 126.414062 438.984375 C 125.550781 439.761719 124.648438 440.484375 123.707031 441.152344 C 122.769531 441.820312 121.796875 442.433594 120.792969 442.988281 C 119.789062 443.542969 118.757812 444.035156 117.699219 444.46875 C 116.636719 444.90625 115.554688 445.277344 114.453125 445.589844 C 113.347656 445.902344 112.226562 446.148438 111.089844 446.332031 C 109.949219 446.519531 108.800781 446.636719 107.640625 446.695312 C 106.476562 446.75 105.308594 446.742188 104.136719 446.667969 C 102.960938 446.59375 101.789062 446.457031 100.613281 446.257812 C 99.4375 446.054688 98.269531 445.789062 97.105469 445.460938 C 95.941406 445.132812 94.789062 444.746094 93.648438 444.292969 C 92.503906 443.84375 91.378906 443.332031 90.269531 442.761719 C 89.160156 442.191406 88.074219 441.566406 87.007812 440.882812 C 85.941406 440.199219 84.902344 439.460938 83.890625 438.671875 C 82.878906 437.878906 81.898438 437.039062 80.949219 436.152344 C 80 435.261719 79.085938 434.328125 78.210938 433.347656 C 77.335938 432.367188 76.5 431.34375 75.703125 430.285156 C 74.910156 429.222656 74.160156 428.125 73.453125 426.992188 C 72.746094 425.859375 72.085938 424.699219 71.476562 423.507812 C 70.863281 422.3125 70.304688 421.097656 69.796875 419.855469 C 69.285156 418.613281 68.828125 417.355469 68.425781 416.078125 C 68.023438 414.800781 67.675781 413.507812 67.382812 412.207031 C 67.085938 410.90625 66.851562 409.597656 66.671875 408.285156 C 66.492188 406.96875 66.367188 405.65625 66.300781 404.34375 C 66.238281 403.03125 66.230469 401.722656 66.277344 400.425781 C 66.328125 399.125 66.4375 397.835938 66.601562 396.5625 C 66.765625 395.289062 66.988281 394.035156 67.265625 392.800781 C 67.542969 391.566406 67.878906 390.355469 68.265625 389.171875 C 68.65625 387.984375 69.097656 386.832031 69.59375 385.707031 C 70.085938 384.582031 70.632812 383.496094 71.230469 382.445312 C 71.828125 381.394531 72.476562 380.382812 73.167969 379.414062 C 73.863281 378.445312 74.601562 377.523438 75.386719 376.648438 C 76.167969 375.769531 76.992188 374.945312 77.859375 374.167969 C 78.726562 373.390625 79.628906 372.667969 80.566406 372 C 81.507812 371.332031 82.480469 370.71875 83.484375 370.164062 C 84.488281 369.609375 85.519531 369.117188 86.578125 368.679688 C 87.636719 368.246094 88.71875 367.871094 89.824219 367.5625 C 90.925781 367.25 92.046875 367.003906 93.1875 366.816406 C 94.324219 366.632812 95.476562 366.511719 96.636719 366.457031 C 97.796875 366.402344 98.964844 366.410156 100.140625 366.484375 C 101.3125 366.554688 102.488281 366.695312 103.660156 366.894531 C 104.835938 367.097656 106.003906 367.363281 107.167969 367.6875 C 108.332031 368.015625 109.484375 368.40625 110.628906 368.859375 C 111.769531 369.308594 112.894531 369.820312 114.003906 370.390625 C 115.113281 370.960938 116.203125 371.585938 117.269531 372.269531 C 118.335938 372.953125 119.375 373.691406 120.386719 374.480469 C 121.398438 375.269531 122.378906 376.109375 123.328125 377 C 124.277344 377.890625 125.1875 378.824219 126.0625 379.804688 C 126.941406 380.785156 127.777344 381.804688 128.570312 382.867188 C 129.367188 383.929688 130.117188 385.027344 130.824219 386.15625 C 131.53125 387.289062 132.1875 388.453125 132.800781 389.644531 C 133.410156 390.839844 133.972656 392.054688 134.480469 393.296875 Z M 134.480469 393.296875 " fill-opacity="1" fill-rule="nonzero"/><path fill="#ffde59" d="M 480.132812 512.328125 L 358.289062 482.5 C 286.625 464.964844 228.160156 456.429688 181.121094 454.730469 L 153.28125 453.71875 L 116.65625 317.917969 L 152.414062 294.019531 C 188.136719 270.15625 228.847656 237.214844 274.800781 193.394531 L 369.675781 102.894531 Z M 480.132812 512.328125 " fill-opacity="1" fill-rule="nonzero"/><path fill="#9e2828" d="M 626.347656 224.777344 C 578.296875 86.734375 467.226562 4.769531 378.210938 41.648438 C 294 76.539062 259.761719 205.328125 296.964844 335.960938 C 299.0625 343.441406 301.449219 350.890625 304.054688 358.375 C 319.527344 402.8125 341.546875 441.425781 367.21875 472.195312 C 421.308594 536.878906 491.8125 566.527344 552.15625 541.507812 C 641.171875 504.589844 674.363281 362.824219 626.347656 224.777344 Z M 542.359375 513.339844 C 490.4375 534.890625 429.984375 510.773438 382.585938 456.863281 C 357.890625 428.84375 336.773438 392.761719 322.203125 350.855469 C 319.203125 342.285156 316.597656 333.71875 314.359375 325.148438 L 314.320312 325.148438 C 283.914062 211.257812 314.574219 100.257812 388.007812 69.8125 C 467.007812 37.054688 565.570312 109.839844 608.164062 232.300781 C 650.828125 354.796875 621.324219 480.621094 542.359375 513.339844 Z M 542.359375 513.339844 " fill-opacity="1" fill-rule="nonzero"/><path fill="#9e2828" d="M 527.96875 484.417969 C 487.183594 501.335938 439.421875 481.199219 402.253906 437.230469 C 383.777344 415.429688 367.90625 387.734375 356.804688 355.773438 C 351.054688 339.285156 346.96875 322.726562 344.402344 306.492188 C 332 227.816406 355.972656 156.480469 406.554688 135.507812 C 467.550781 110.234375 544.167969 167.832031 577.71875 264.1875 C 611.234375 360.507812 588.964844 459.105469 527.96875 484.417969 Z M 527.96875 484.417969 " fill-opacity="1" fill-rule="nonzero"/><path fill="#ffde59" d="M 608.164062 232.300781 C 565.535156 109.839844 466.972656 37.054688 388.007812 69.8125 C 314.574219 100.257812 283.914062 211.257812 314.320312 325.148438 L 314.359375 325.148438 C 316.597656 333.71875 319.203125 342.285156 322.203125 350.855469 C 336.808594 392.761719 357.925781 428.84375 382.585938 456.863281 C 429.984375 510.773438 490.4375 534.855469 542.359375 513.339844 C 621.324219 480.621094 650.828125 354.796875 608.164062 232.300781 Z M 527.96875 484.417969 C 487.183594 501.335938 439.421875 481.199219 402.253906 437.230469 C 383.777344 415.429688 367.90625 387.734375 356.804688 355.773438 C 351.054688 339.285156 346.96875 322.726562 344.402344 306.492188 C 332 227.816406 355.972656 156.480469 406.554688 135.507812 C 467.550781 110.234375 544.167969 167.832031 577.71875 264.1875 C 611.234375 360.507812 588.964844 459.105469 527.96875 484.417969 Z M 527.96875 484.417969 " fill-opacity="1" fill-rule="nonzero"/><path fill="#ffde59" d="M 527.96875 484.417969 C 487.183594 501.335938 439.421875 481.199219 402.253906 437.230469 C 383.777344 415.429688 367.90625 387.734375 356.804688 355.773438 C 351.054688 339.285156 346.96875 322.726562 344.402344 306.492188 C 332 227.816406 355.972656 156.480469 406.554688 135.507812 C 467.550781 110.234375 544.167969 167.832031 577.71875 264.1875 C 611.234375 360.507812 588.964844 459.105469 527.96875 484.417969 Z M 527.96875 484.417969 " fill-opacity="1" fill-rule="nonzero"/><path fill="#ffffff" d="M 532.453125 492.371094 C 487.074219 511.207031 433.925781 488.792969 392.527344 439.835938 C 371.953125 415.574219 354.308594 384.734375 341.945312 349.15625 C 335.546875 330.824219 331.027344 312.347656 328.132812 294.308594 C 314.320312 206.773438 341.003906 127.375 397.300781 104.054688 C 465.199219 75.925781 550.457031 140.027344 587.769531 247.230469 C 625.15625 354.507812 600.351562 464.242188 532.453125 492.371094 Z M 532.453125 492.371094 " fill-opacity="1" fill-rule="nonzero"/><path fill="#9e2828" d="M 193.308594 454.984375 L 150.785156 470.242188 C 137.589844 474.980469 114.8125 445.113281 99.84375 403.5 C 92.359375 382.671875 88.273438 362.894531 87.695312 347.710938 C 87.117188 332.523438 90.042969 321.964844 96.660156 319.582031 L 136.6875 305.226562 C 138.675781 324.535156 145.003906 350.746094 155.054688 378.730469 C 166.914062 411.742188 181.195312 439.546875 193.308594 454.984375 Z M 193.308594 454.984375 " fill-opacity="1" fill-rule="nonzero"/><g clip-path="url(#24a42f8cbd)"><g clip-path="url(#7d5286ace3)"><path fill="#9e2828" d="M 473.082031 352.519531 L 454.570312 361.847656 L 322.3125 428.265625 C 309.511719 396.449219 301.917969 358.917969 301.304688 318.316406 C 300.980469 297.378906 302.605469 276.953125 305.789062 257.5 L 417.910156 230.347656 L 437.6875 225.574219 C 457.570312 227.527344 477.3125 248.0625 485.628906 277.929688 C 493.980469 307.757812 488.304688 337.660156 473.082031 352.519531 Z M 473.082031 352.519531 " fill-opacity="1" fill-rule="nonzero"/></g></g><g clip-path="url(#06403af8a3)"><g clip-path="url(#e68a04430b)"><path fill="#ffde59" d="M 485.664062 277.929688 C 493.980469 307.757812 488.339844 337.660156 473.121094 352.519531 C 469.683594 355.953125 465.636719 358.554688 461.1875 360.183594 C 459.054688 360.980469 456.847656 361.484375 454.605469 361.847656 C 432.550781 364.667969 408.976562 343.007812 399.648438 309.566406 C 390.320312 276.121094 398.566406 242.75 417.945312 230.347656 C 419.96875 229.152344 421.996094 228.105469 424.128906 227.308594 C 428.574219 225.683594 433.167969 225.105469 437.722656 225.574219 C 457.609375 227.527344 477.347656 248.097656 485.664062 277.929688 Z M 485.664062 277.929688 " fill-opacity="1" fill-rule="nonzero"/></g></g><g clip-path="url(#9de72fda7a)"><path fill="#9e2828" d="M 628.726562 100.3125 L 806.386719 0.132812 L 820.34375 24.886719 L 642.683594 125.066406 Z M 628.726562 100.3125 " fill-opacity="1" fill-rule="nonzero"/></g><path fill="#9e2828" d="M 729.105469 158.273438 L 835.09375 118.503906 L 840.632812 133.265625 L 734.644531 173.03125 Z M 729.105469 158.273438 " fill-opacity="1" fill-rule="nonzero"/><path fill="#9e2828" d="M 758.15625 335.988281 L 870.679688 348.371094 L 868.957031 364.039062 L 756.429688 351.65625 Z M 758.15625 335.988281 " fill-opacity="1" fill-rule="nonzero"/><path fill="#9e2828" d="M 697.65625 416.613281 L 894.117188 471.398438 L 886.484375 498.773438 L 690.023438 443.984375 Z M 697.65625 416.613281 " fill-opacity="1" fill-rule="nonzero"/><path fill="#9e2828" d="M 759.722656 237.503906 L 962.539062 215.953125 L 965.542969 244.210938 L 762.726562 265.765625 Z M 759.722656 237.503906 " fill-opacity="1" fill-rule="nonzero"/></svg>