<svg xmlns="http://www.w3.org/2000/svg" xmlns:xlink="http://www.w3.org/1999/xlink" width="1300" zoomAndPan="magnify" viewBox="0 0 974.88 299.999988" height="400" preserveAspectRatio="xMidYMid meet" version="1.0"><defs><clipPath id="76283ae882"><path d="M 1.667969 0.0195312 L 973.199219 0.0195312 L 973.199219 299.980469 L 1.667969 299.980469 Z M 1.667969 0.0195312 " clip-rule="nonzero"/></clipPath></defs><g clip-path="url(#76283ae882)"><path fill="#ffffff" d="M 773.011719 0.378906 C 773.199219 0.378906 773.390625 0.378906 773.578125 0.378906 C 776.804688 0.570312 779.082031 3.039062 779.273438 6.261719 L 787.8125 260.53125 L 813.425781 112.902344 C 813.996094 109.488281 816.84375 107.210938 820.257812 107.019531 C 823.675781 107.019531 826.519531 109.109375 827.28125 112.523438 L 834.109375 142.695312 C 834.871094 145.921875 837.527344 148.007812 840.75 148.007812 C 848.722656 148.007812 855.550781 153.699219 856.878906 161.480469 L 859.347656 176.089844 C 859.347656 176.28125 859.347656 176.46875 859.726562 176.46875 C 860.105469 176.46875 860.105469 176.28125 860.105469 176.089844 L 867.507812 131.6875 C 868.265625 126.945312 872.25 123.71875 876.996094 123.910156 C 881.738281 123.910156 885.535156 127.324219 886.101562 132.070312 L 893.882812 193.546875 C 894.070312 195.066406 895.210938 195.445312 895.78125 195.445312 C 896.347656 195.445312 897.488281 195.445312 898.058594 194.117188 L 913.046875 157.304688 C 915.324219 151.613281 920.828125 148.007812 927.089844 148.007812 L 973.199219 148.007812 L 973.199219 156.355469 L 927.089844 156.355469 C 924.433594 156.355469 921.964844 158.0625 920.828125 160.53125 L 905.835938 197.34375 C 903.9375 201.898438 899.574219 204.363281 894.640625 203.792969 C 889.898438 203.226562 886.101562 199.429688 885.535156 194.6875 L 877.753906 133.207031 C 877.753906 133.015625 877.5625 132.449219 876.804688 132.257812 C 876.046875 132.257812 875.855469 132.828125 875.855469 133.015625 L 868.457031 177.417969 C 867.695312 181.785156 864.089844 184.820312 859.726562 184.820312 C 855.363281 184.820312 851.757812 181.785156 851 177.609375 L 848.34375 162.996094 C 847.582031 159.203125 844.355469 156.355469 840.371094 156.355469 C 836.957031 156.355469 833.542969 155.21875 830.886719 152.941406 C 828.226562 150.855469 826.332031 147.816406 825.570312 144.402344 L 820.636719 121.0625 L 790.277344 295.445312 C 789.898438 297.910156 787.621094 299.621094 785.15625 299.429688 C 782.6875 299.238281 780.789062 297.152344 780.601562 294.6875 L 771.683594 26.757812 L 749.292969 144.210938 C 747.964844 151.234375 741.703125 156.355469 734.679688 156.355469 C 728.796875 156.355469 723.675781 160.339844 722.347656 166.222656 L 714.566406 200.378906 C 713.808594 203.984375 710.582031 206.449219 706.789062 206.449219 C 702.992188 206.449219 699.957031 203.792969 699.195312 200.1875 L 686.105469 135.671875 C 686.105469 135.484375 686.105469 135.292969 685.726562 135.292969 C 685.34375 135.292969 685.34375 135.484375 685.34375 135.484375 L 670.925781 177.609375 C 669.597656 181.59375 665.992188 184.058594 661.816406 184.058594 C 657.640625 184.058594 654.226562 181.59375 652.707031 177.609375 L 646.257812 159.203125 C 645.6875 157.496094 643.980469 156.167969 642.082031 156.167969 L 1.667969 156.167969 L 1.667969 147.816406 L 642.273438 147.816406 C 647.773438 147.816406 652.519531 151.234375 654.414062 156.355469 L 660.867188 174.761719 C 661.058594 175.523438 661.625 175.523438 662.003906 175.523438 C 662.386719 175.523438 662.953125 175.332031 663.144531 174.761719 L 677.566406 132.636719 C 678.894531 128.84375 682.5 126.375 686.484375 126.753906 C 690.46875 126.945312 693.695312 129.792969 694.453125 133.777344 L 706.976562 195.636719 L 714.1875 164.136719 C 715.324219 159.582031 717.792969 155.40625 721.589844 152.371094 C 725.382812 149.335938 729.9375 147.816406 734.679688 147.816406 C 737.90625 147.816406 740.5625 145.539062 741.132812 142.503906 L 766.9375 5.3125 C 767.507812 2.46875 769.972656 0.378906 773.011719 0.378906 Z M 773.011719 0.378906 " fill-opacity="1" fill-rule="nonzero"/></g></svg>