<svg xmlns="http://www.w3.org/2000/svg" xmlns:xlink="http://www.w3.org/1999/xlink" width="1366" zoomAndPan="magnify" viewBox="0 0 1024.5 576" height="768" preserveAspectRatio="xMidYMid meet" version="1.0"><defs><clipPath id="507d548eb2"><path d="M 88.5625 69.410156 L 535.382812 69.410156 L 535.382812 516.226562 L 88.5625 516.226562 Z M 88.5625 69.410156 " clip-rule="nonzero"/></clipPath><clipPath id="0f8f1f9790"><path d="M 601.371094 10.292969 L 936 10.292969 L 936 345 L 601.371094 345 Z M 601.371094 10.292969 " clip-rule="nonzero"/></clipPath><clipPath id="dd8c671b74"><path d="M 536.90625 344.363281 L 768.292969 344.363281 L 768.292969 575.75 L 536.90625 575.75 Z M 536.90625 344.363281 " clip-rule="nonzero"/></clipPath></defs><g clip-path="url(#507d548eb2)"><path fill="#ffffff" d="M 368.644531 517.714844 C 368.644531 517.714844 368.644531 517.714844 255.914062 517.714844 C 255.914062 517.714844 255.914062 517.714844 255.914062 351.238281 C 255.914062 351.238281 255.914062 351.238281 88.5625 351.238281 C 88.5625 351.238281 88.5625 351.238281 88.5625 236.757812 C 88.5625 236.757812 88.5625 236.757812 255.914062 236.757812 C 255.914062 236.757812 255.914062 236.757812 255.914062 69.410156 C 255.914062 69.410156 255.914062 69.410156 368.644531 69.410156 C 368.644531 69.410156 368.644531 69.410156 368.644531 236.757812 C 368.644531 236.757812 368.644531 236.757812 536.871094 236.757812 C 536.871094 236.757812 536.871094 236.757812 536.871094 351.238281 C 536.871094 351.238281 536.871094 351.238281 368.644531 351.238281 C 368.644531 351.238281 368.644531 351.238281 368.644531 517.714844 Z M 368.644531 517.714844 " fill-opacity="1" fill-rule="nonzero"/></g><g clip-path="url(#0f8f1f9790)"><path fill="#ffffff" d="M 810.070312 344.34375 C 810.070312 344.34375 810.070312 344.34375 726.070312 344.34375 C 726.070312 344.34375 726.070312 344.34375 726.070312 220.296875 C 726.070312 220.296875 726.070312 220.296875 601.371094 220.296875 C 601.371094 220.296875 601.371094 220.296875 601.371094 134.992188 C 601.371094 134.992188 601.371094 134.992188 726.070312 134.992188 C 726.070312 134.992188 726.070312 134.992188 726.070312 10.292969 C 726.070312 10.292969 726.070312 10.292969 810.070312 10.292969 C 810.070312 10.292969 810.070312 10.292969 810.070312 134.992188 C 810.070312 134.992188 810.070312 134.992188 935.417969 134.992188 C 935.417969 134.992188 935.417969 134.992188 935.417969 220.296875 C 935.417969 220.296875 935.417969 220.296875 810.070312 220.296875 C 810.070312 220.296875 810.070312 220.296875 810.070312 344.34375 Z M 810.070312 344.34375 " fill-opacity="1" fill-rule="nonzero"/></g><g clip-path="url(#dd8c671b74)"><path fill="#ffffff" d="M 681.503906 575.808594 C 681.503906 575.808594 681.503906 575.808594 623.304688 575.808594 C 623.304688 575.808594 623.304688 575.808594 623.304688 489.863281 C 623.304688 489.863281 623.304688 489.863281 536.90625 489.863281 C 536.90625 489.863281 536.90625 489.863281 536.90625 430.757812 C 536.90625 430.757812 536.90625 430.757812 623.304688 430.757812 C 623.304688 430.757812 623.304688 430.757812 623.304688 344.363281 C 623.304688 344.363281 623.304688 344.363281 681.503906 344.363281 C 681.503906 344.363281 681.503906 344.363281 681.503906 430.757812 C 681.503906 430.757812 681.503906 430.757812 768.351562 430.757812 C 768.351562 430.757812 768.351562 430.757812 768.351562 489.863281 C 768.351562 489.863281 768.351562 489.863281 681.503906 489.863281 C 681.503906 489.863281 681.503906 489.863281 681.503906 575.808594 Z M 681.503906 575.808594 " fill-opacity="1" fill-rule="nonzero"/></g></svg>