<svg xmlns="http://www.w3.org/2000/svg" xmlns:xlink="http://www.w3.org/1999/xlink" width="993" zoomAndPan="magnify" viewBox="0 0 744.75 576" height="768" preserveAspectRatio="xMidYMid meet" version="1.0"><defs><clipPath id="7199475453"><path d="M 486 347 L 715 347 L 715 575 L 486 575 Z M 486 347 " clip-rule="nonzero"/></clipPath><clipPath id="1206f068fc"><path d="M 744.496094 163.800781 L 743.082031 583.65625 L -1.414062 581.144531 L 0 161.289062 Z M 744.496094 163.800781 " clip-rule="nonzero"/></clipPath><clipPath id="015d779ad7"><path d="M 744.496094 163.800781 L 743.082031 583.65625 L -1.414062 581.144531 L 0 161.289062 Z M 744.496094 163.800781 " clip-rule="nonzero"/></clipPath><clipPath id="b19de18b65"><path d="M 267 393 L 418 393 L 418 544 L 267 544 Z M 267 393 " clip-rule="nonzero"/></clipPath><clipPath id="aa723dc107"><path d="M 744.496094 163.800781 L 743.082031 583.65625 L -1.414062 581.144531 L 0 161.289062 Z M 744.496094 163.800781 " clip-rule="nonzero"/></clipPath><clipPath id="72966c8227"><path d="M 744.496094 163.800781 L 743.082031 583.65625 L -1.414062 581.144531 L 0 161.289062 Z M 744.496094 163.800781 " clip-rule="nonzero"/></clipPath><clipPath id="0c9cf490ba"><path d="M 70 369 L 221 369 L 221 520 L 70 520 Z M 70 369 " clip-rule="nonzero"/></clipPath><clipPath id="5f6d59c4bc"><path d="M 744.496094 163.800781 L 743.082031 583.65625 L -1.414062 581.144531 L 0 161.289062 Z M 744.496094 163.800781 " clip-rule="nonzero"/></clipPath><clipPath id="0642c3eaf9"><path d="M 744.496094 163.800781 L 743.082031 583.65625 L -1.414062 581.144531 L 0 161.289062 Z M 744.496094 163.800781 " clip-rule="nonzero"/></clipPath><clipPath id="30476faf14"><path d="M 0 161 L 167 161 L 167 445 L 0 445 Z M 0 161 " clip-rule="nonzero"/></clipPath><clipPath id="b87ed39fde"><path d="M 744.496094 163.800781 L 743.082031 583.65625 L -1.414062 581.144531 L 0 161.289062 Z M 744.496094 163.800781 " clip-rule="nonzero"/></clipPath><clipPath id="f64a8d14e5"><path d="M 744.496094 163.800781 L 743.082031 583.65625 L -1.414062 581.144531 L 0 161.289062 Z M 744.496094 163.800781 " clip-rule="nonzero"/></clipPath><clipPath id="d1d3f200be"><path d="M 0 503 L 76 503 L 76 575.902344 L 0 575.902344 Z M 0 503 " clip-rule="nonzero"/></clipPath><clipPath id="23e24b5551"><path d="M 744.496094 163.800781 L 743.082031 583.65625 L -1.414062 581.144531 L 0 161.289062 Z M 744.496094 163.800781 " clip-rule="nonzero"/></clipPath><clipPath id="b880f0bbdf"><path d="M 744.496094 163.800781 L 743.082031 583.65625 L -1.414062 581.144531 L 0 161.289062 Z M 744.496094 163.800781 " clip-rule="nonzero"/></clipPath><clipPath id="3a2e18837e"><path d="M 174 283 L 324 283 L 324 434 L 174 434 Z M 174 283 " clip-rule="nonzero"/></clipPath><clipPath id="de9e1e05dd"><path d="M 744.496094 163.800781 L 743.082031 583.65625 L -1.414062 581.144531 L 0 161.289062 Z M 744.496094 163.800781 " clip-rule="nonzero"/></clipPath><clipPath id="9efbbb1b17"><path d="M 744.496094 163.800781 L 743.082031 583.65625 L -1.414062 581.144531 L 0 161.289062 Z M 744.496094 163.800781 " clip-rule="nonzero"/></clipPath><clipPath id="db20023206"><path d="M 115 468 L 343 468 L 343 575.902344 L 115 575.902344 Z M 115 468 " clip-rule="nonzero"/></clipPath><clipPath id="59f17c9d0d"><path d="M 744.496094 163.800781 L 743.082031 583.65625 L -1.414062 581.144531 L 0 161.289062 Z M 744.496094 163.800781 " clip-rule="nonzero"/></clipPath><clipPath id="e41c382cc8"><path d="M 744.496094 163.800781 L 743.082031 583.65625 L -1.414062 581.144531 L 0 161.289062 Z M 744.496094 163.800781 " clip-rule="nonzero"/></clipPath><clipPath id="8fa65c4eb6"><path d="M 368 493 L 547 493 L 547 575.902344 L 368 575.902344 Z M 368 493 " clip-rule="nonzero"/></clipPath><clipPath id="46fe200cae"><path d="M 744.496094 163.800781 L 743.082031 583.65625 L -1.414062 581.144531 L 0 161.289062 Z M 744.496094 163.800781 " clip-rule="nonzero"/></clipPath><clipPath id="5e0024e5b0"><path d="M 744.496094 163.800781 L 743.082031 583.65625 L -1.414062 581.144531 L 0 161.289062 Z M 744.496094 163.800781 " clip-rule="nonzero"/></clipPath><clipPath id="9a694dc182"><path d="M 613 177 L 744.5 177 L 744.5 438 L 613 438 Z M 613 177 " clip-rule="nonzero"/></clipPath><clipPath id="49f57500fd"><path d="M 744.496094 163.800781 L 743.082031 583.65625 L -1.414062 581.144531 L 0 161.289062 Z M 744.496094 163.800781 " clip-rule="nonzero"/></clipPath><clipPath id="36a2067c3b"><path d="M 744.496094 163.800781 L 743.082031 583.65625 L -1.414062 581.144531 L 0 161.289062 Z M 744.496094 163.800781 " clip-rule="nonzero"/></clipPath><clipPath id="ba2a6ad7dc"><path d="M 668 479 L 744 479 L 744 575.902344 L 668 575.902344 Z M 668 479 " clip-rule="nonzero"/></clipPath><clipPath id="661803b04c"><path d="M 744.496094 163.800781 L 743.082031 583.65625 L -1.414062 581.144531 L 0 161.289062 Z M 744.496094 163.800781 " clip-rule="nonzero"/></clipPath><clipPath id="631df8dc47"><path d="M 744.496094 163.800781 L 743.082031 583.65625 L -1.414062 581.144531 L 0 161.289062 Z M 744.496094 163.800781 " clip-rule="nonzero"/></clipPath><clipPath id="2eb3494f01"><path d="M 550 469 L 743 469 L 743 575.902344 L 550 575.902344 Z M 550 469 " clip-rule="nonzero"/></clipPath><clipPath id="fc269c7b1f"><path d="M 744.496094 163.800781 L 743.082031 583.65625 L -1.414062 581.144531 L 0 161.289062 Z M 744.496094 163.800781 " clip-rule="nonzero"/></clipPath><clipPath id="42f76399ff"><path d="M 744.496094 163.800781 L 743.082031 583.65625 L -1.414062 581.144531 L 0 161.289062 Z M 744.496094 163.800781 " clip-rule="nonzero"/></clipPath><clipPath id="fdac65cdd6"><path d="M 656 223 L 744.5 223 L 744.5 398 L 656 398 Z M 656 223 " clip-rule="nonzero"/></clipPath><clipPath id="85dd8799c4"><path d="M 744.496094 163.800781 L 743.082031 583.65625 L -1.414062 581.144531 L 0 161.289062 Z M 744.496094 163.800781 " clip-rule="nonzero"/></clipPath><clipPath id="94e68d2ea7"><path d="M 744.496094 163.800781 L 743.082031 583.65625 L -1.414062 581.144531 L 0 161.289062 Z M 744.496094 163.800781 " clip-rule="nonzero"/></clipPath><clipPath id="46860b59c8"><path d="M 112 461 L 354 461 L 354 575.902344 L 112 575.902344 Z M 112 461 " clip-rule="nonzero"/></clipPath><clipPath id="d0755ea4e6"><path d="M 744.496094 163.800781 L 743.082031 583.65625 L -1.414062 581.144531 L 0 161.289062 Z M 744.496094 163.800781 " clip-rule="nonzero"/></clipPath><clipPath id="d7bb6f2531"><path d="M 744.496094 163.800781 L 743.082031 583.65625 L -1.414062 581.144531 L 0 161.289062 Z M 744.496094 163.800781 " clip-rule="nonzero"/></clipPath><clipPath id="d5fba70cad"><path d="M 498 190 L 744 190 L 744 443 L 498 443 Z M 498 190 " clip-rule="nonzero"/></clipPath><clipPath id="9ca361afc1"><path d="M 744.496094 163.800781 L 743.082031 583.65625 L -1.414062 581.144531 L 0 161.289062 Z M 744.496094 163.800781 " clip-rule="nonzero"/></clipPath><clipPath id="26b2ee562f"><path d="M 744.496094 163.800781 L 743.082031 583.65625 L -1.414062 581.144531 L 0 161.289062 Z M 744.496094 163.800781 " clip-rule="nonzero"/></clipPath><clipPath id="025cef6d2d"><path d="M 0 444 L 80 444 L 80 575.902344 L 0 575.902344 Z M 0 444 " clip-rule="nonzero"/></clipPath><clipPath id="d2d107675c"><path d="M 744.496094 163.800781 L 743.082031 583.65625 L -1.414062 581.144531 L 0 161.289062 Z M 744.496094 163.800781 " clip-rule="nonzero"/></clipPath><clipPath id="98160d9019"><path d="M 744.496094 163.800781 L 743.082031 583.65625 L -1.414062 581.144531 L 0 161.289062 Z M 744.496094 163.800781 " clip-rule="nonzero"/></clipPath><clipPath id="12635af82b"><path d="M 69 303 L 215 303 L 215 449 L 69 449 Z M 69 303 " clip-rule="nonzero"/></clipPath><clipPath id="766ebe0f89"><path d="M 744.496094 163.800781 L 743.082031 583.65625 L -1.414062 581.144531 L 0 161.289062 Z M 744.496094 163.800781 " clip-rule="nonzero"/></clipPath><clipPath id="b54504a57f"><path d="M 744.496094 163.800781 L 743.082031 583.65625 L -1.414062 581.144531 L 0 161.289062 Z M 744.496094 163.800781 " clip-rule="nonzero"/></clipPath><clipPath id="4b76fdb276"><path d="M 395 353 L 518 353 L 518 476 L 395 476 Z M 395 353 " clip-rule="nonzero"/></clipPath><clipPath id="fca62138f0"><path d="M 744.496094 163.800781 L 743.082031 583.65625 L -1.414062 581.144531 L 0 161.289062 Z M 744.496094 163.800781 " clip-rule="nonzero"/></clipPath><clipPath id="c87c20ff9a"><path d="M 744.496094 163.800781 L 743.082031 583.65625 L -1.414062 581.144531 L 0 161.289062 Z M 744.496094 163.800781 " clip-rule="nonzero"/></clipPath><clipPath id="733ce0469a"><path d="M 385 376 L 532 376 L 532 523 L 385 523 Z M 385 376 " clip-rule="nonzero"/></clipPath><clipPath id="bb0d610822"><path d="M 744.496094 163.800781 L 743.082031 583.65625 L -1.414062 581.144531 L 0 161.289062 Z M 744.496094 163.800781 " clip-rule="nonzero"/></clipPath><clipPath id="7f7b4e871c"><path d="M 744.496094 163.800781 L 743.082031 583.65625 L -1.414062 581.144531 L 0 161.289062 Z M 744.496094 163.800781 " clip-rule="nonzero"/></clipPath></defs><g clip-path="url(#7199475453)"><g clip-path="url(#1206f068fc)"><g clip-path="url(#015d779ad7)"><path fill="#9e2828" d="M 600.910156 347.355469 L 714.246094 461.460938 L 600.140625 574.796875 L 486.804688 460.691406 Z M 600.910156 347.355469 " fill-opacity="1" fill-rule="nonzero"/></g></g></g><g clip-path="url(#b19de18b65)"><g clip-path="url(#aa723dc107)"><g clip-path="url(#72966c8227)"><path fill="#9e2828" d="M 342.6875 393.765625 L 417.25 468.835938 L 342.183594 543.398438 L 267.621094 468.332031 Z M 342.6875 393.765625 " fill-opacity="1" fill-rule="nonzero"/></g></g></g><g clip-path="url(#0c9cf490ba)"><g clip-path="url(#5f6d59c4bc)"><g clip-path="url(#0642c3eaf9)"><path fill="#9e2828" d="M 145.648438 369.929688 L 220.210938 444.996094 L 145.144531 519.558594 L 70.582031 444.492188 Z M 145.648438 369.929688 " fill-opacity="1" fill-rule="nonzero"/></g></g></g><g clip-path="url(#30476faf14)"><g clip-path="url(#b87ed39fde)"><g clip-path="url(#f64a8d14e5)"><path fill="#9e2828" d="M 24.828125 444.710938 L -0.878906 418.832031 L -0.0976562 187.089844 L 25.78125 161.382812 L 166.96875 303.523438 L 89.046875 380.921875 L 81.855469 388.066406 Z M 24.828125 444.710938 " fill-opacity="1" fill-rule="nonzero"/></g></g></g><g clip-path="url(#d1d3f200be)"><g clip-path="url(#23e24b5551)"><g clip-path="url(#b880f0bbdf)"><path fill="#9e2828" d="M 75.847656 581.40625 L -1.425781 581.144531 L -1.167969 503.871094 L 37.339844 542.636719 L 49.753906 555.136719 Z M 75.847656 581.40625 " fill-opacity="1" fill-rule="nonzero"/></g></g></g><g clip-path="url(#3a2e18837e)"><g clip-path="url(#de9e1e05dd)"><g clip-path="url(#9efbbb1b17)"><path fill="#9e2828" d="M 249.210938 283.464844 L 323.773438 358.53125 L 248.707031 433.097656 L 174.140625 358.027344 Z M 249.210938 283.464844 " fill-opacity="1" fill-rule="nonzero"/></g></g></g><g clip-path="url(#db20023206)"><g clip-path="url(#59f17c9d0d)"><g clip-path="url(#e41c382cc8)"><path fill="#9e2828" d="M 342.351562 582.304688 L 115.777344 581.539062 L 229.449219 468.636719 Z M 342.351562 582.304688 " fill-opacity="1" fill-rule="nonzero"/></g></g></g><g clip-path="url(#8fa65c4eb6)"><g clip-path="url(#46fe200cae)"><g clip-path="url(#5e0024e5b0)"><path fill="#9e2828" d="M 546.15625 582.992188 L 368.316406 582.390625 L 443.804688 507.410156 L 451 500.269531 L 457.539062 493.773438 L 464.914062 501.199219 Z M 546.15625 582.992188 " fill-opacity="1" fill-rule="nonzero"/></g></g></g><g clip-path="url(#9a694dc182)"><g clip-path="url(#49f57500fd)"><g clip-path="url(#36a2067c3b)"><path fill="#9e2828" d="M 743.316406 437.707031 L 686.515625 380.523438 L 674.105469 368.027344 L 613.40625 306.917969 L 664.898438 255.773438 L 677.394531 243.359375 L 744.195312 177.011719 Z M 743.316406 437.707031 " fill-opacity="1" fill-rule="nonzero"/></g></g></g><g clip-path="url(#ba2a6ad7dc)"><g clip-path="url(#661803b04c)"><g clip-path="url(#631df8dc47)"><path fill="#9e2828" d="M 742.824219 583.65625 L 697.609375 583.503906 L 668.105469 553.800781 L 695.695312 526.398438 L 708.191406 513.988281 L 743.175781 479.234375 Z M 742.824219 583.65625 " fill-opacity="1" fill-rule="nonzero"/></g></g></g><g clip-path="url(#2eb3494f01)"><g clip-path="url(#fc269c7b1f)"><g clip-path="url(#42f76399ff)"><path fill="#161d24" d="M 664.089844 494.574219 L 672.4375 502.984375 L 695.695312 526.382812 L 742.855469 573.878906 L 742.941406 548.96875 L 708.191406 513.988281 L 684.949219 490.574219 L 664.179688 469.664062 L 579.386719 553.890625 L 550.0625 583.003906 L 574.980469 583.089844 Z M 664.089844 494.574219 " fill-opacity="1" fill-rule="nonzero"/></g></g></g><g clip-path="url(#fdac65cdd6)"><g clip-path="url(#85dd8799c4)"><g clip-path="url(#94e68d2ea7)"><path fill="#9e2828" d="M 743.511719 379.234375 L 715.855469 351.382812 L 703.445312 338.882812 L 675.199219 310.449219 L 743.976562 242.132812 L 744.035156 223.917969 L 688.277344 279.300781 L 656.988281 310.382812 L 694.324219 347.96875 L 706.734375 360.464844 L 743.453125 397.4375 Z M 743.511719 379.234375 " fill-opacity="1" fill-rule="nonzero"/></g></g></g><g clip-path="url(#46860b59c8)"><g clip-path="url(#d0755ea4e6)"><g clip-path="url(#d7bb6f2531)"><path fill="#161d24" d="M 233.253906 461.136719 L 112.050781 581.527344 L 136.960938 581.613281 L 233.167969 486.046875 L 328.734375 582.257812 L 353.644531 582.34375 Z M 233.253906 461.136719 " fill-opacity="1" fill-rule="nonzero"/></g></g></g><g clip-path="url(#d5fba70cad)"><g clip-path="url(#9ca361afc1)"><g clip-path="url(#26b2ee562f)"><path fill="#161d24" d="M 660.007812 406.855469 L 686.515625 380.53125 L 743.699219 323.726562 L 743.746094 310.160156 L 709.847656 276.03125 L 700.769531 266.894531 L 677.394531 243.359375 L 624.757812 190.363281 L 498.15625 316.113281 L 564.804688 383.214844 L 623.898438 442.707031 Z M 577.304688 370.804688 L 523.066406 316.199219 L 624.671875 215.273438 L 664.898438 255.773438 L 688.277344 279.316406 L 697.355469 288.453125 L 725.597656 316.882812 L 703.441406 338.886719 L 694.304688 347.960938 L 674.101562 368.03125 L 647.59375 394.359375 L 623.988281 417.808594 Z M 577.304688 370.804688 " fill-opacity="1" fill-rule="nonzero"/></g></g></g><g clip-path="url(#025cef6d2d)"><g clip-path="url(#d2d107675c)"><g clip-path="url(#98160d9019)"><path fill="#161d24" d="M 79.722656 525.367188 L -0.964844 444.132812 L -1.046875 469.042969 L 54.8125 525.28125 L 37.339844 542.636719 L -1.425781 581.144531 L 23.480469 581.230469 Z M 79.722656 525.367188 " fill-opacity="1" fill-rule="nonzero"/></g></g></g><g clip-path="url(#12635af82b)"><g clip-path="url(#766ebe0f89)"><g clip-path="url(#b54504a57f)"><path fill="#161d24" d="M 182.902344 407.433594 L 203.195312 387.277344 L 214.589844 375.960938 L 154.722656 315.691406 L 142.210938 303.089844 L 69.339844 375.472656 L 104.464844 410.835938 L 141.71875 448.339844 Z M 111.660156 403.6875 L 83.675781 375.519531 L 142.171875 317.417969 L 178.355469 353.847656 L 200.261719 375.902344 L 141.765625 433.996094 Z M 111.660156 403.6875 " fill-opacity="1" fill-rule="nonzero"/></g></g></g><g clip-path="url(#4b76fdb276)"><g clip-path="url(#fca62138f0)"><g clip-path="url(#c87c20ff9a)"><path fill="#9e2828" d="M 456.554688 353.800781 L 517.285156 414.941406 L 456.144531 475.671875 L 395.417969 414.53125 Z M 456.554688 353.800781 " fill-opacity="1" fill-rule="nonzero"/></g></g></g><g clip-path="url(#733ce0469a)"><g clip-path="url(#bb0d610822)"><g clip-path="url(#7f7b4e871c)"><path fill="#161d24" d="M 472.054688 508.390625 L 503.332031 477.328125 L 531.195312 449.636719 L 514.671875 433 L 506.933594 425.226562 L 458.816406 376.785156 L 408.035156 427.222656 L 385.953125 449.15625 L 411.339844 474.714844 L 443.816406 507.410156 L 458.335938 522.027344 Z M 450.996094 500.269531 L 400.28125 449.207031 L 415.167969 434.421875 L 458.765625 391.117188 L 507.472656 440.15625 L 516.851562 449.597656 L 496.175781 470.128906 L 464.90625 501.195312 L 458.367188 507.6875 Z M 450.996094 500.269531 " fill-opacity="1" fill-rule="nonzero"/></g></g></g></svg>