<svg xmlns="http://www.w3.org/2000/svg" xmlns:xlink="http://www.w3.org/1999/xlink" width="993" zoomAndPan="magnify" viewBox="0 0 744.75 576" height="768" preserveAspectRatio="xMidYMid meet" version="1.0"><defs><clipPath id="27ac9dc0b7"><path d="M 105 446 L 324.605469 446 L 324.605469 575.902344 L 105 575.902344 Z M 105 446 " clip-rule="nonzero"/></clipPath><clipPath id="3e1bc8d667"><path d="M 0 515 L 60 515 L 60 575.902344 L 0 575.902344 Z M 0 515 " clip-rule="nonzero"/></clipPath><clipPath id="bbf244c780"><path d="M 112 0.0976562 L 315 0.0976562 L 315 102 L 112 102 Z M 112 0.0976562 " clip-rule="nonzero"/></clipPath><clipPath id="a55c751053"><path d="M 0 0.0976562 L 81 0.0976562 L 81 59 L 0 59 Z M 0 0.0976562 " clip-rule="nonzero"/></clipPath><clipPath id="9d98fe6ea8"><path d="M 0 0.0976562 L 88 0.0976562 L 88 150 L 0 150 Z M 0 0.0976562 " clip-rule="nonzero"/></clipPath><clipPath id="e3bffaa227"><path d="M 143 0.0976562 L 279 0.0976562 L 279 68 L 143 68 Z M 143 0.0976562 " clip-rule="nonzero"/></clipPath><clipPath id="2ba8584884"><path d="M 108 0.0976562 L 304 0.0976562 L 304 191 L 108 191 Z M 108 0.0976562 " clip-rule="nonzero"/></clipPath><clipPath id="de1d1ac0a0"><path d="M 0 513 L 106 513 L 106 575.902344 L 0 575.902344 Z M 0 513 " clip-rule="nonzero"/></clipPath></defs><path fill="#9e2828" d="M 182.320312 110.632812 L 94.398438 22.710938 L 6.476562 110.632812 L 94.398438 198.554688 Z M 182.320312 110.632812 " fill-opacity="1" fill-rule="nonzero"/><path fill="#9e2828" d="M 145.765625 310.148438 L 87.921875 252.304688 L 30.078125 310.148438 L 87.921875 367.988281 Z M 145.765625 310.148438 " fill-opacity="1" fill-rule="nonzero"/><path fill="#9e2828" d="M 163.679688 462.546875 L 105.839844 404.703125 L 47.996094 462.546875 L 105.839844 520.390625 Z M 163.679688 462.546875 " fill-opacity="1" fill-rule="nonzero"/><g clip-path="url(#27ac9dc0b7)"><path fill="#9e2828" d="M 105.546875 555.761719 L 125.492188 575.703125 L 304.660156 575.703125 L 324.601562 555.761719 L 215.074219 446.238281 L 149.492188 511.820312 Z M 105.546875 555.761719 " fill-opacity="1" fill-rule="nonzero"/></g><g clip-path="url(#3e1bc8d667)"><path fill="#9e2828" d="M 0 515.957031 L 0 575.703125 L 59.742188 575.703125 L 29.875 545.832031 L 20.242188 536.203125 Z M 0 515.957031 " fill-opacity="1" fill-rule="nonzero"/></g><path fill="#9e2828" d="M 230.796875 382.707031 L 172.957031 324.863281 L 115.113281 382.707031 L 172.957031 440.546875 Z M 230.796875 382.707031 " fill-opacity="1" fill-rule="nonzero"/><path fill="#9e2828" d="M 0 309.917969 L 0 485.089844 L 87.585938 397.5 Z M 0 309.917969 " fill-opacity="1" fill-rule="nonzero"/><path fill="#9e2828" d="M 0 152.347656 L 0 289.839844 L 68.746094 221.09375 Z M 0 152.347656 " fill-opacity="1" fill-rule="nonzero"/><g clip-path="url(#bbf244c780)"><path fill="#9e2828" d="M 112.835938 0.296875 L 213.613281 101.074219 L 253.289062 61.398438 L 262.921875 51.769531 L 314.390625 0.296875 Z M 112.835938 0.296875 " fill-opacity="1" fill-rule="nonzero"/></g><g clip-path="url(#a55c751053)"><path fill="#9e2828" d="M 0 0.296875 L 0 35.253906 L 22.886719 58.140625 L 80.730469 0.296875 Z M 0 0.296875 " fill-opacity="1" fill-rule="nonzero"/></g><g clip-path="url(#9d98fe6ea8)"><path fill="#161d24" d="M 68.664062 61.402344 L 62.1875 54.925781 L 44.15625 36.882812 L 7.558594 0.296875 L 26.816406 0.296875 L 53.773438 27.253906 L 71.8125 45.285156 L 87.925781 61.394531 L 22.585938 126.734375 L 0 149.328125 L 0 130.0625 Z M 68.664062 61.402344 " fill-opacity="1" fill-rule="nonzero"/></g><g clip-path="url(#e3bffaa227)"><path fill="#9e2828" d="M 158.046875 0.296875 L 179.503906 21.75 L 189.136719 31.378906 L 211.046875 53.292969 L 264.042969 0.296875 L 278.125 0.296875 L 211.050781 67.371094 L 182.089844 38.40625 L 172.457031 28.78125 L 143.96875 0.296875 Z M 158.046875 0.296875 " fill-opacity="1" fill-rule="nonzero"/></g><path fill="#161d24" d="M 93.390625 394.578125 L 0 487.972656 L 0 468.710938 L 74.132812 394.578125 L 0 320.445312 L 0 301.1875 Z M 93.390625 394.578125 " fill-opacity="1" fill-rule="nonzero"/><g clip-path="url(#2ba8584884)"><path fill="#161d24" d="M 136.472656 64.785156 L 156.894531 44.359375 L 200.960938 0.296875 L 211.449219 0.296875 L 237.746094 26.59375 L 244.785156 33.636719 L 262.921875 51.769531 L 303.753906 92.605469 L 206.203125 190.152344 L 108.660156 92.609375 Z M 164.128906 128.820312 L 206.203125 170.894531 L 284.496094 92.605469 L 253.289062 61.398438 L 235.148438 43.261719 L 228.109375 36.21875 L 206.203125 14.3125 L 127.910156 92.605469 Z M 164.128906 128.820312 " fill-opacity="1" fill-rule="nonzero"/></g><g clip-path="url(#de1d1ac0a0)"><path fill="#161d24" d="M 43.335938 513.109375 L 105.929688 575.703125 L 86.667969 575.703125 L 43.335938 532.371094 L 29.875 545.832031 L 0 575.703125 L 0 556.445312 Z M 43.335938 513.109375 " fill-opacity="1" fill-rule="nonzero"/></g><path fill="#161d24" d="M 134.78125 433.648438 L 150.417969 418.011719 L 159.195312 409.230469 L 205.636719 455.671875 L 215.347656 465.378906 L 159.195312 521.527344 L 131.945312 494.28125 L 103.046875 465.378906 Z M 137.492188 488.734375 L 159.195312 510.445312 L 204.269531 465.371094 L 176.199219 437.300781 L 159.203125 420.308594 L 114.140625 465.378906 Z M 137.492188 488.734375 " fill-opacity="1" fill-rule="nonzero"/><path fill="#9e2828" d="M 176.957031 222.21875 L 129.847656 175.105469 L 82.738281 222.21875 L 129.847656 269.328125 Z M 176.957031 222.21875 " fill-opacity="1" fill-rule="nonzero"/><path fill="#161d24" d="M 57.484375 209.832031 L 81.578125 185.734375 L 103.0625 164.261719 L 115.878906 177.082031 L 121.871094 183.085938 L 159.195312 220.410156 L 120.066406 259.539062 L 103.054688 276.554688 L 46.902344 220.402344 Z M 63.707031 226.132812 L 103.050781 265.476562 L 114.523438 254.003906 L 148.117188 220.414062 L 103.054688 175.351562 L 57.988281 220.417969 Z M 63.707031 226.132812 " fill-opacity="1" fill-rule="nonzero"/></svg>