<svg xmlns="http://www.w3.org/2000/svg" xmlns:xlink="http://www.w3.org/1999/xlink" width="300" zoomAndPan="magnify" viewBox="0 0 224.87999 195.750001" height="261" preserveAspectRatio="xMidYMid meet" version="1.0"><defs><clipPath id="d56174476f"><path d="M 127 0 L 224.675781 0 L 224.675781 195.21875 L 127 195.21875 Z M 127 0 " clip-rule="nonzero"/></clipPath><clipPath id="8fb3bc99f6"><path d="M 0.0820312 0 L 98 0 L 98 195.21875 L 0.0820312 195.21875 Z M 0.0820312 0 " clip-rule="nonzero"/></clipPath></defs><g clip-path="url(#d56174476f)"><path fill="#ffffff" d="M 224.683594 97.597656 L 175.878906 97.597656 C 175.878906 70.640625 197.734375 48.789062 224.683594 48.789062 L 224.683594 -0.015625 C 170.777344 -0.015625 127.070312 43.6875 127.070312 97.597656 L 127.070312 195.214844 L 224.683594 195.214844 L 224.683594 97.597656 " fill-opacity="1" fill-rule="nonzero"/></g><g clip-path="url(#8fb3bc99f6)"><path fill="#ffffff" d="M 97.789062 195.214844 L 97.789062 97.597656 L 48.980469 97.597656 C 48.980469 70.640625 70.835938 48.789062 97.789062 48.789062 L 97.789062 -0.015625 C 43.878906 -0.015625 0.171875 43.6875 0.171875 97.597656 L 0.171875 195.214844 L 97.789062 195.214844 " fill-opacity="1" fill-rule="nonzero"/></g></svg>