<svg xmlns="http://www.w3.org/2000/svg" xmlns:xlink="http://www.w3.org/1999/xlink" width="300" zoomAndPan="magnify" viewBox="0 0 224.87999 195.750001" height="261" preserveAspectRatio="xMidYMid meet" version="1.0"><defs><filter x="0%" y="0%" width="100%" height="100%" id="2db9e8ad7f"><feColorMatrix values="0 0 0 0 1 0 0 0 0 1 0 0 0 0 1 0 0 0 1 0" color-interpolation-filters="sRGB"/></filter><clipPath id="859672d230"><path d="M 0.0820312 0 L 224.675781 0 L 224.675781 195.5 L 0.0820312 195.5 Z M 0.0820312 0 " clip-rule="nonzero"/></clipPath><mask id="27e8437e7d"><g filter="url(#2db9e8ad7f)"><rect x="-22.487999" width="269.855988" fill="#000000" y="-19.575" height="234.900001" fill-opacity="0.3"/></g></mask><clipPath id="c0abf879eb"><path d="M 127 0 L 224.675781 0 L 224.675781 195.21875 L 127 195.21875 Z M 127 0 " clip-rule="nonzero"/></clipPath><clipPath id="6dbbc01282"><path d="M 0.0820312 0 L 98 0 L 98 195.21875 L 0.0820312 195.21875 Z M 0.0820312 0 " clip-rule="nonzero"/></clipPath><clipPath id="1b161a7833"><rect x="0" width="225" y="0" height="196"/></clipPath></defs><g clip-path="url(#859672d230)"><g mask="url(#27e8437e7d)"><g transform="matrix(1, 0, 0, 1, 0.000000000000000014, 0.000000000000034042)"><g clip-path="url(#1b161a7833)"><g clip-path="url(#c0abf879eb)"><path fill="#808080" d="M 224.683594 97.457031 L 175.878906 97.457031 C 175.878906 70.460938 197.734375 48.582031 224.683594 48.582031 L 224.683594 -0.296875 C 170.777344 -0.296875 127.070312 43.46875 127.070312 97.457031 L 127.070312 195.214844 L 224.683594 195.214844 L 224.683594 97.457031 " fill-opacity="1" fill-rule="nonzero"/></g><g clip-path="url(#6dbbc01282)"><path fill="#808080" d="M 97.789062 195.214844 L 97.789062 97.457031 L 48.980469 97.457031 C 48.980469 70.460938 70.835938 48.582031 97.789062 48.582031 L 97.789062 -0.296875 C 43.878906 -0.296875 0.171875 43.46875 0.171875 97.457031 L 0.171875 195.214844 L 97.789062 195.214844 " fill-opacity="1" fill-rule="nonzero"/></g></g></g></g></g></svg>